<?xml version="1.0" encoding="UTF-8"?>
<svg version="1.1" viewBox="0 0 2032 2048" width="1280" height="1280" xmlns="http://www.w3.org/2000/svg">
<path transform="translate(365,125)" d="m0 0h917l23 2 20 4 18 6 11 6 12 9 14 14 9 13 8 15 3 11 1 11v587l-1 915-2 16-4 11-9 16-10 13-11 11-11 7-10 5-18 4-31 2-34 1h-1029l-21-2-11-3-12-6-10-9-12-12-10-15-7-15-5-17-2-12-1-13-1-89v-1191l1-163 2-16 4-6 10-6 9-4h15l13 5 8 6 1 11v1459l2 16 4 9 6 7 10 5 9 2 11 1h1031l31-1 12-2 8-4 6-10 2-9 1-15v-1469l-1-25-2-9-3-4v-2l-5-2-9-3-7-1-17-1-49-1-440-1h-548l-6-2-4-5-5-15-1-4v-10l3-8 5-6 11-5 23-4 10-1 24-1z" fill="#232323"/>
<path transform="translate(1692,223)" d="m0 0h51l40 1 29 2 18 3 16 5 14 8 13 11 10 12 9 15 7 16 4 15 2 13 1 17 1 36v1063l-1 37-2 30-4 18-7 16-14 26-12 21-10 17-13 22-10 16-12 21-6 10-10 18-14 24-9 16-10 16-13 22-9 14-9 12-8 8-5 3h-10l-8-4-12-11-10-13-11-19-15-26-14-24-13-23-14-24-13-24-12-20-13-22-15-25-9-16-17-33-4-16-1-17v-1152l2-23 5-20 8-16 8-13 9-10 9-9 18-11 11-5 15-4 26-3zm-30 62-21 1-14 2-10 4-5 4-7 10-3 10-1 10-1 32-1 58 1 1h238l4-1 1-3v-83l-1-14-5-13-9-10-10-5-14-2-26-1zm-64 188v1029l4 13 12 18 10 16 16 29 15 27 26 44 8 13 14 23 6 10 8 14 5 6 4-2 8-13 10-18 10-17 9-16 16-27 15-26 9-15 15-26 7-12 1-6-24 2h-46l-11-2-5-5-4-8-2-8v-13l3-9 4-5 10-5 13-2 13-1 43-1 24-1 1-2 1-36v-965l-1-2-46-1z" fill="#272727"/>
<path transform="translate(760,776)" d="m0 0h22l21 3 17 5 18 8 14 9 12 11 12 12 10 13 11 15 5 7 13 5 41 9 23 6 11 5 14 8 14 11 15 15 11 14 8 13 7 16 6 20 3 18v18l-3 19-5 17-10 23-10 16-11 13-6 7h-2l-1 3-19 14-21 10-13 4-13 2h-48l-15-2-17-5-43-13-25-7-25-5-6-1h-15l-39 6-24 6-21 6-20 5-18 6-16 3h-47l-16-5-16-8-15-10-10-8-13-13-10-13-8-14-8-21-6-21-1-9v-25l2-16 4-15 12-27 8-11 9-11 12-12 8-7 10-7 16-9 16-6 12-3 18-3 24-7 11-6 16-16 18-22 16-16 16-10 23-10 12-4 12-2z" fill="#232323"/>
<path transform="translate(866,464)" d="m0 0 17 1 15 3 19 7 14 8 10 8 14 14 11 17 8 17 8 24 3 15 1 9v37l-4 22-7 21-8 16-7 11-13 16-11 10-13 8-21 9-18 5-10 1h-11l-11-2-22-10-14-10-8-8-5-8-11-23-4-10-2-23-1-21v-39l2-36 2-17 5-16 9-19 7-9 12-12 10-6 14-6 12-3z" fill="#232323"/>
<path transform="translate(662,464)" d="m0 0h16l16 3 13 5 11 7 10 9 9 13 7 14 5 15 4 19 2 18 1 18v32l-1 24-3 23-4 17-6 17-9 16-7 8-11 7-16 8-15 4-5 1h-22l-14-4-21-9-10-6-10-9-5-5-10-11-11-18-10-21-6-23-2-15v-35l3-19 6-21 8-18 5-9 12-17 13-13 10-8 10-6 15-6 16-4z" fill="#232323"/>
<path transform="translate(343,1334)" d="m0 0h634l15 2 8 3 6 5 4 8 1 5v8l-4 12-7 9-6 4-8 3h-640l-12-2-6-4-5-5-5-13v-10l4-10 6-9 6-5z" fill="#242424"/>
<path transform="translate(403,1542)" d="m0 0h410l41 1 12 3 5 5 2 10v14l-1 16-3 6-3 3-3 1-214 1h-314l-7-3-6-9-4-12v-10l3-9 7-9 7-6 3-1z" fill="#292929"/>
<path transform="translate(432,635)" d="m0 0h8l14 3 16 7 11 7 13 12 10 13 9 15 15 29 10 24 5 17 1 6v23l-4 13-9 14-9 9-11 7-15 6-14 4h-15l-18-5-21-9-10-6-13-11-9-10-11-17-11-23-6-19-3-15v-17l3-15 6-17 7-11 10-12 8-7 10-7 13-6z" fill="#232323"/>
<path transform="translate(1095,636)" d="m0 0h17l14 4 13 7 12 10 11 14 7 15 4 16 1 7v27l-3 16-10 25-9 16-8 11-9 10-10 8-14 9-20 8-17 5-6 1-20-4-15-6-12-7-10-8-4-5-4-9-4-11-1-5v-22l3-15 4-12 7-17 11-20 6-12 12-18 9-11 9-9 13-9 15-7z" fill="#242424"/>
<path transform="translate(1331,199)" d="m0 0 5 4 1 5 2 29 1 93 1 282 1 71v53l1 37v9l1 12-1 9v36l1 4-1 6v44l1 5-1 37v365l-1 44v3l-1 8 1 6-1 6 1 5-1 12v68l1 55v34l-2 135-1 34-2 21-1 3h-2v2l-6 1 4-8 2-9 1-15v-1469l-1-25-2-9z" fill="#797979"/>
<path transform="translate(365,125)" d="m0 0h917l23 2 20 4-2 2h-101l-48-1-18-1-212-1h-202l-247 1-38 1h-154l-13 1h-26l-8 2-2-2 13-3 23-3 24-1z" fill="#797979"/>
<path transform="translate(1189,271)" d="m0 0h9l13 4 11 8 14 14 5 9 1 3v11l-5 10-9 10-12 12-8 5-13 2-13-4-8-6-12-12-9-13-2-6 1-8 4-10 11-13 5-5 10-8z" fill="#262626"/>
<path transform="translate(141,247)" d="m0 0h1l1 21v29l1 3v39l-1 45v483l-1 169v431l-1 233h-1l-1-89v-1191l1-163z" fill="#797979"/>
<path transform="translate(1336,326)" d="m0 0h1l1 594v192l-1 609-2 13-1 2-6 1 4-8 2-9 1-15z" fill="#fff"/>
<path transform="translate(323,1379)" d="m0 0 7 6 9 4 8 1 35 1 534 1v1h-570l-12-2-6-4-5-5z" fill="#FDFDFD"/>
<path transform="translate(246,137)" d="m0 0 1 2-5 14-2 12-2-4v-10l3-8z" fill="#fff"/>
<path transform="translate(1009,1352)" d="m0 0h1l1 5v8l-2 7h-1v-9z" fill="#E3E3E3"/>
</svg>
